<?xml version="1.0" encoding="utf-8"?>
<!-- Generator: Adobe Illustrator 22.0.0, SVG Export Plug-In . SVG Version: 6.00 Build 0)  -->
<svg version="1.1" id="Layer_1" xmlns="http://www.w3.org/2000/svg" xmlns:xlink="http://www.w3.org/1999/xlink" x="0px" y="0px"
	 viewBox="0 0 271 79.7" style="enable-background:new 0 0 271 79.7;" xml:space="preserve">
<style type="text/css">
	.st0{fill:#FFFFFF;}
	.st1{fill:#005DAA;}
	.st2{fill:#E31837;}
</style>
<g>
	<path class="st0" d="M266.9,18.1c-4.6-5.6-12.8-8.8-22.4-8.8c-10.1,0-19.3,3.4-25.6,9c0.6-3.5,1-6.4,1-6.4l-2.7-0.8
		c-3.9-1.2-8.2-1.8-12.5-1.8c-7.3,0-14.4,2.2-20.1,6l1.6-5.4h-4.4h-39.6l-0.5,1.7c-3.9-1.6-8.2-2.3-13.1-2.3
		c-9.1,0-18.9,3.5-24,10.3c-0.3-0.5-0.7-1-1.1-1.4c-4.6-5.6-12.8-8.8-22.4-8.8c-9.9,0-18.8,3.2-25.1,8.6c1.1-6.6,2.5-14.9,2.5-14.9
		l-2.8-0.8C51,0.7,45.7,0,40.4,0C21.1,0,3.6,12.3,0.5,27.9C-0.9,34.6,0.7,41,4.8,46.1c3.5,4.3,8.7,7.4,14.9,8.9H0.7v24.4H98
		c0,0,0.1-0.2,0.1-0.3c0,0.1,0,0.3,0,0.3h11.7l1.6-2.6l-0.5,2.6h26.5l0.4-2c2.3,1.5,5.4,2.3,8.8,2.3c3.1,0,6-0.6,8.5-1.8l-0.3,1.5
		h15.8h5.2H192l0.1-0.3c1.7,0.4,3.5,0.6,5.3,0.6c1.1,0,2.1-0.1,3.2-0.3h14.1c0,0,1-2.1,1.1-2.2c0.4,0,0.5,0,0.9,0
		c0.1,0.8,0.3,2.2,0.3,2.2h6.5h8.7h7.1h5.2h16.1l2.2-11.4c0,0-0.5,0-0.8,0c0.1-0.8,0.2-1.1,0.3-1.6c0.2,0,0.6,0,0.6,0L265,55h-1.2
		c1-0.9,1.7-2,1.9-3.3c0.3-1.5-0.1-3.1-1.1-4.3c-0.3-0.3-0.5-0.6-0.9-0.8c3.5-3.6,5.8-7.9,6.8-12.7
		C271.7,27.9,270.5,22.4,266.9,18.1z M241.9,28.9c1.8,0,3.2,0.5,3.9,1.3c0.7,0.8,0.6,1.8,0.5,2.5c-0.6,2.9-3.6,5-7.4,5
		c-1.8,0-3.3-0.5-4-1.3c-0.5-0.6-0.6-1.4-0.4-2.4C235,31.5,237.7,28.9,241.9,28.9z M210.4,32.6c-0.1,0.7-0.2,1.4-0.3,2.1
		c-2.9,2-5.7,2.9-8.7,2.9c-2,0-3.7-0.7-4.6-1.7c-0.5-0.6-0.7-1.3-0.5-2.1c0.5-2.7,4.2-5.1,7.9-5.1c2.3,0,4.5,0.8,6.6,2.5
		C210.6,31.6,210.5,32.1,210.4,32.6z M213.3,55l-1.4,2.4l-1.2-0.7c-0.8-0.4-1.6-0.8-2.5-1.1c0.6-0.2,1.2-0.3,1.7-0.5l1.7-0.6
		c0,0,0.8-3.3,1.6-7.2c0.2,0.3,0.4,0.6,0.7,0.9c2.5,3,6.1,5.3,10.4,6.8h-0.5H213.3z M227.9,56l-0.6,3l-0.8-3.3
		C227,55.8,227.5,55.9,227.9,56z M146.1,29.2c-0.5,1.6-1.3,4.2-2.2,7.2c-0.1-1.9-0.7-3.7-1.8-5.2c-0.4-0.6-0.9-1.2-1.5-1.8
		C142.6,29.3,144.8,29.2,146.1,29.2z M130.3,24.8L130.3,24.8L130.3,24.8L130.3,24.8z M83,32.8c-0.6,2.9-3.6,5-7.4,5
		c-1.8,0-3.3-0.5-4-1.3c-0.3-0.4-0.5-0.9-0.5-1.6c0-0.3,0-0.5,0.1-0.8c0.5-2.5,3.2-5.1,7.4-5.1c1.8,0,3.2,0.5,3.9,1.3
		C83.2,31.1,83.2,32.1,83,32.8z M140.8,46.7c-1.1,3.6-2,6.7-2.5,8.3h-0.1h-9.7C133.4,53.4,137.9,50.6,140.8,46.7z M47.5,30.7
		c-3.8,2.4-7.3,3.5-11.1,3.5c-2.8,0-5.2-0.9-6.5-2.5c-0.7-0.9-1-1.9-0.7-3c0.7-3.7,5.6-6.7,10.7-6.7c3.4,0,6.6,1.3,9.6,3.9
		C48.6,27.4,48,29,47.5,30.7z M94.1,51.5l3.2,1.4c1.7,0.8,3.7,1.5,5.7,2h-5.9c0,0-0.4,0.7-0.6,1.3c0-0.6-0.1-1.3-0.1-1.3H86.2
		C89,54.1,91.7,53,94.1,51.5z M171.6,67.1C172.3,63.6,174,55,174,55h-4h-7.3c1.5-4.9,6.8-22.4,7.9-25.9c0.6,0,1.4,0.1,2.4,0.1
		c-0.4,1.2-0.8,2.4-1,3.6c-1.1,5.8,0.2,11.4,3.8,15.7c2.4,2.9,5.6,5,9.3,6.5h-9.8L173,67.1C172.4,67.1,171.9,67.1,171.6,67.1z
		 M240.3,67.1c0.5-2.7,1.5-8,2-10.6c0.5-0.1,0.9-0.1,1.4-0.2l-2.1,10.8C241,67.1,240.6,67.1,240.3,67.1z M249.5,55
		c1.4-0.4,2.8-1,4.1-1.5c0.2,0.5,0.5,0.9,0.8,1.3c0.1,0.1,0.1,0.2,0.2,0.2H249.5z M46.8,54.1l1.7-0.6c0,0,0.6-2.7,1.5-6.2
		c0.2,0.3,0.5,0.6,0.7,0.9c2.5,3,6.1,5.3,10.4,6.8H43.2C44.5,54.7,45.8,54.4,46.8,54.1z"/>
	<path class="st1" d="M93.3,58.3L94,69h0.2c0.4-1.1,0.7-2.2,1.3-3.3l3.7-7.4h6L106,69h0.2c0.3-1,0.7-2.1,1.1-3.2l3.6-7.5h8.1
		l-11,17.9h-6.8l-0.6-9.7h-0.3c-0.3,0.9-0.5,1.8-0.9,2.7l-3.5,7h-6.6l-4.1-17.9H93.3z"/>
	<path class="st1" d="M118.4,58.3h7.5l-1.1,6h4.8l1.1-6h7.5l-3.4,17.9h-7.5l1.2-6.2h-4.8l-1.2,6.2H115L118.4,58.3z"/>
	<path class="st1" d="M160.3,67.3c-1.1,5.7-7.1,9.2-13.6,9.2s-11.2-3.4-10.1-9.2c1.1-5.6,7.1-9.3,13.6-9.3
		C156.7,58,161.3,61.6,160.3,67.3z M144.4,67.4c-0.4,2,1,3.4,3.4,3.4c2.4,0,4.3-1.4,4.7-3.4c0.4-1.9-0.9-3.5-3.4-3.5
		C146.6,63.9,144.7,65.5,144.4,67.4z"/>
	<path class="st1" d="M162,58.3h7.8l-2.3,12.1h6.6l-1.1,5.7h-14.4L162,58.3z"/>
	<path class="st1" d="M192.5,69.8l0.3,0.3c1.2,0.9,2.8,1.6,4.6,1.6c0.8,0,2-0.3,2.2-1.1c0.2-0.8-0.9-0.9-1.5-1l-1.5-0.2
		c-3-0.5-5.2-1.9-4.7-4.7c0.8-4.2,5.9-6.6,10.6-6.6c2.4,0,4.6,0.5,6.5,1.6l-3,4.6c-1.2-0.8-2.6-1.4-4.3-1.4c-0.7,0-1.7,0.2-1.9,1
		c-0.1,0.7,0.8,0.8,1.4,0.9l1.7,0.3c3.2,0.6,5.3,2.1,4.7,5.1c-0.8,4.3-5.9,6.4-10.5,6.4c-2.7,0-5.7-0.6-7.9-1.6L192.5,69.8z"/>
	<path class="st1" d="M219.3,69.7l-0.3-3.2c-0.1-0.8-0.1-1.5-0.1-2.3h-0.3l-2.5,5.5H219.3z M212.5,76.2h-8.3l10.9-17.9h8.6l4.3,17.9
		h-8.3l-0.3-2.2h-5.9L212.5,76.2z"/>
	<path class="st1" d="M230.7,58.3h7.8l-2.3,12.1h6.5l-1.1,5.7h-14.4L230.7,58.3z"/>
	<path class="st1" d="M246.6,58.3H261l-0.9,4.9h-6.6l-0.3,1.7h6l-0.9,4.7h-6l-0.3,1.8h6.8l-0.9,4.9h-14.7L246.6,58.3z"/>
	<g>
		<path class="st2" d="M140.7,26.1l9.9-0.4L142.3,53h17.7l8.3-27.2l9.6,0.4l3.9-12.9h-37.2L140.7,26.1z"/>
		<path class="st2" d="M104.1,33.2c-2.5,12.8-16,20.4-30.9,20.4c-14.8,0-25.4-7.7-22.9-20.4c2.4-12.5,16.1-20.6,30.9-20.6
			C95.9,12.5,106.5,20.7,104.1,33.2z M68,33.4c-0.9,4.5,2.3,7.7,7.6,7.7c5.4,0,9.7-3.1,10.6-7.7c0.8-4.2-2-7.8-7.6-7.8
			C73,25.6,68.9,29.2,68,33.4z"/>
		<path class="st2" d="M98.6,50c5,2.3,11.9,3.6,18,3.6c10.5,0,22-4.7,23.8-14.2c1.3-6.8-3.5-10-10.7-11.4l-3.9-0.7
			c-1.3-0.3-3.5-0.5-3.2-2c0.3-1.6,2.7-2.1,4.2-2.1c3.8,0,7,1.3,9.7,3l6.7-10.2c-4.3-2.4-9.2-3.5-14.7-3.5
			c-10.6,0-22.1,5.3-23.9,14.7c-1.2,6.2,4,9.6,10.7,10.6l3.4,0.5c1.6,0.3,3.9,0.4,3.5,2.2c-0.3,1.8-3.2,2.4-5,2.4
			c-4.1,0-7.6-1.6-10.3-3.6l-0.8-0.6L98.6,50z"/>
		<path class="st2" d="M216.2,14.2c-3.5-1.1-7.6-1.6-11.6-1.6c-14.3,0-27.2,9.3-29.5,20.9c-2.2,11.4,6.9,20.2,20.8,20.2
			c3.2,0,9.8-0.5,12.9-1.6l3.4-14.9c-3.3,2.3-6.8,3.7-10.8,3.7c-5.3,0-9.2-3.4-8.4-7.8c0.8-4.3,5.8-7.8,11.1-7.8c4,0,7.2,1.8,9.6,4
			L216.2,14.2z"/>
		<path class="st2" d="M244.5,12.5c-14.8,0-28.5,8.1-30.9,20.6c-2.5,12.8,8.1,20.4,22.9,20.4c14.8,0,28.4-7.7,30.9-20.4
			C269.8,20.7,259.2,12.5,244.5,12.5z M241.9,25.6c5.6,0,8.4,3.5,7.6,7.8c-0.9,4.5-5.2,7.7-10.6,7.7c-5.4,0-8.5-3.1-7.6-7.7
			C232.2,29.2,236.3,25.6,241.9,25.6z"/>
		<path class="st2" d="M54.8,5.3c-4.4-1.3-9.4-2-14.4-2C22.6,3.3,6.5,14.5,3.7,28.5c-2.7,13.7,8.7,24.4,26,24.4
			c3.9,0,12.3-0.6,16.1-1.9l4.2-18c-4.1,2.7-8.5,4.5-13.5,4.5c-6.6,0-11.5-4.1-10.4-9.4c1-5.2,7.3-9.4,13.9-9.4c5,0,9,2.2,12,4.8
			L54.8,5.3z"/>
		<path class="st2" d="M256.5,51.1c0.3-1.4,1.8-2.5,3.5-2.5c1.7,0,2.8,1.1,2.5,2.5c-0.3,1.4-1.8,2.5-3.5,2.5
			C257.4,53.6,256.2,52.5,256.5,51.1z M261.8,51.1c0.2-1.1-0.6-1.9-1.9-1.9c-1.3,0-2.4,0.7-2.6,1.9c-0.2,1.1,0.6,1.9,1.9,1.9
			C260.5,52.9,261.5,52.2,261.8,51.1z M260.7,52.4h-0.8l-0.5-1.1h-0.5l-0.2,1.1H258l0.5-2.6h1.5c0.7,0,1,0.2,0.9,0.8
			c-0.1,0.5-0.4,0.7-0.8,0.7L260.7,52.4z M259.7,50.8c0.3,0,0.6,0,0.7-0.3c0-0.2-0.2-0.2-0.6-0.2h-0.7l-0.1,0.5H259.7z"/>
	</g>
	<polygon class="st1" points="4.9,76.2 87.6,76.2 87.6,76.2 87.6,76.2 86.5,71.6 4.9,71.6 	"/>
	<polygon class="st1" points="4.9,69.7 86.1,69.7 85,65.1 4.9,65.1 	"/>
	<polygon class="st1" points="4.9,63.2 84.5,63.2 84.2,61.5 83.5,58.3 4.9,58.3 	"/>
	<path class="st1" d="M177.8,58.3h14.4l-0.9,4.9h-6.6l-0.3,1.7h6l-0.9,4.7h-6l-0.3,1.8h6.8l-0.9,4.9h-14.7L177.8,58.3z"/>
</g>
</svg>
